<?xml version="1.0" encoding="utf-8"?>
<!-- Generator: Adobe Illustrator 22.0.0, SVG Export Plug-In . SVG Version: 6.00 Build 0)  -->
<svg version="1.1" id="图层_1" xmlns="http://www.w3.org/2000/svg" xmlns:xlink="http://www.w3.org/1999/xlink" x="0px" y="0px"
	 viewBox="0 0 200 200" style="enable-background:new 0 0 200 200;" xml:space="preserve">
<style type="text/css">
	.st0{fill:#F05B49;}
	.st1{fill:#FFFFFF;}
	.st2{fill:#FDE104;}
	.st3{fill:#AA810C;}
	.st4{fill:#7BCA02;}
	.st5{fill:#3366FF;}
	.st6{fill:#00A0E9;}
	.st7{fill:#FF7E27;}
	.st8{fill:#F26700;}
	.st9{fill:#FFD9B0;}
	.st10{fill:#FFD0B0;}
</style>
<g>
	<path id="path-1_6_" class="st5" d="M190.3,91.2c0-49.6-40-89.8-89.5-90.3c-49.1-0.4-90,39.2-91.1,88.4c-0.9,45,31,82.7,73.5,90.7
		c4.8,0.9,8.8,4,11,8.4L100,200l5.8-11.7c2.1-4.2,6.1-7.4,10.8-8.3C158.6,172.2,190.3,135.4,190.3,91.2z"/>
</g>
<g id="Group_3_" transform="translate(33.000000, 63.000000)">
	<path id="Shape_23_" class="st1" d="M117.8,33.4c-0.6,1.3-1.4,2.6-2.3,3.8c-0.3,0.4-0.6,0.8-1,1.2c-1,1.1-2.1,2.1-3.3,3l2.2,3.9
		c1.6-1.1,3.1-2.4,4.4-3.9c0.5-0.6,1.1-1.2,1.5-1.9c0.9-1.2,1.6-2.5,2.3-3.8c1.2-2.5,2-5.3,2.2-8.1h-4.5
		C119.2,29.6,118.6,31.5,117.8,33.4z"/>
	<path id="Shape_22_" class="st1" d="M115.5,13.4c0.9,1.2,1.7,2.5,2.3,3.8c0.8,1.8,1.4,3.8,1.6,5.8v0.1h4.5v-0.6
		c-0.3-2.7-1-5.2-2.2-7.5c-0.6-1.3-1.4-2.6-2.3-3.8c-0.8-1.1-1.6-2-2.5-3c-1.1-1.1-2.2-2-3.4-2.8l-2.2,3.9
		C112.8,10.4,114.3,11.8,115.5,13.4z"/>
	<path id="Shape_21_" class="st1" d="M83.9,36.8c-0.2-0.3-0.5-0.7-0.7-1c-0.6-0.9-1.2-1.8-2-2.6c-2.6-2.9-6-4.9-9.8-5.6
		c-1.2-0.3-2.5-0.4-3.7-0.4h-1.3c-6.3,0-12.1,3.2-15.5,8.6c-3.6,5.7-9.8,9.2-16.6,9.2c-5.6,0-10.9-2.4-14.6-6.5
		c-3.8-4.2-5.5-9.7-4.9-15.4c1-9,8.3-16.3,17.3-17.3C39.7,5,47,8.5,51,15c3.2,5.2,9.1,8.4,15.4,8.4h1.3c1.1,0,2.2-0.1,3.2-0.3
		c4-0.7,7.7-2.7,10.3-5.7c0.7-0.8,1.3-1.6,1.9-2.5c0.2-0.4,0.5-0.8,0.7-1.1c1.1-1.6,2.4-2.9,3.9-4.1l-2.2-3.9
		c-2.1,1.6-4,3.5-5.5,5.7c-0.2,0.3-0.5,0.7-0.7,1c-0.6,0.9-1.3,1.8-2.1,2.5c-2.5,2.4-6,3.8-9.6,3.8h-1.3c-4.8,0-9.2-2.4-11.6-6.3
		C49.8,4.6,41,0.3,31.6,1.3C20.5,2.5,11.5,11.4,10.3,22.5c-0.8,6.9,1.4,13.7,6,18.8s11.1,8,18,8c8.3,0,15.9-4.2,20.4-11.2
		c2.6-4.1,7-6.5,11.8-6.5h1.3c3.6,0,7,1.4,9.6,3.9c0.8,0.8,1.5,1.7,2.2,2.6c0.2,0.3,0.4,0.6,0.6,0.9c1.5,2.2,3.4,4.1,5.5,5.7
		l2.2-3.9C86.4,39.7,85.1,38.3,83.9,36.8z"/>
	<path id="Shape_20_" class="st1" d="M101.6,44.8c-0.6,0.1-1.1,0.1-1.7,0.1c-0.9,0-1.9-0.1-2.8-0.2c-1.9-0.3-3.8-0.8-5.5-1.6
		L89.4,47c2.4,1.2,5,1.9,7.7,2.2c0.9,0.1,1.8,0.2,2.8,0.2c0.6,0,1.1,0,1.7-0.1c2.8-0.2,5.4-0.9,7.9-1.9l-2.2-3.9
		C105.4,44.2,103.5,44.7,101.6,44.8z"/>
	<path id="Shape_19_" class="st1" d="M101.6,1.2c-1.5-0.1-3-0.1-4.4,0.1c-2.7,0.3-5.3,1.1-7.8,2.2l2.2,3.9c1.7-0.8,3.6-1.4,5.5-1.6
		c1.5-0.2,2.9-0.2,4.4-0.1h0.5c1.8,0.2,3.6,0.7,5.3,1.3l2.2-3.9c-2.2-1-4.6-1.6-7-1.9C102.2,1.3,101.9,1.3,101.6,1.2z"/>
</g>
</svg>
