<?xml version="1.0" encoding="utf-8"?>
<!-- Generator: Adobe Illustrator 22.0.0, SVG Export Plug-In . SVG Version: 6.00 Build 0)  -->
<svg version="1.1" id="图层_1" xmlns="http://www.w3.org/2000/svg" xmlns:xlink="http://www.w3.org/1999/xlink" x="0px" y="0px"
	 viewBox="0 0 200 200" style="enable-background:new 0 0 200 200;" xml:space="preserve">
<style type="text/css">
	.st0{fill:#F05B49;}
	.st1{fill:#FFFFFF;}
	.st2{fill:#FDE104;}
	.st3{fill:#AA810C;}
	.st4{fill:#7BCA02;}
	.st5{fill:#3366FF;}
	.st6{fill:#00A0E9;}
	.st7{fill:#FF7E27;}
	.st8{fill:#F26700;}
	.st9{fill:#FFD9B0;}
	.st10{fill:#FFD0B0;}
</style>
<g>
	<path class="st1" d="M100,179c-3.8-4.6-8.9-7.7-14.9-8.9c-38.7-7.3-66.2-41.2-65.4-80.7c0.9-43.3,36.9-78.5,80.2-78.5h0.8
		C122,11.1,142,19.5,157,34.7c15,15.1,23.3,35.2,23.3,56.5c0,38.7-27.5,71.8-65.4,78.9h-0.1C109,171.3,103.8,174.4,100,179z"/>
	<path class="st0" d="M100,21c0.2,0,0.4,0,0.7,0c18.7,0.2,36.2,7.6,49.3,20.8s20.4,30.8,20.4,49.5c0,33.8-24.1,62.9-57.3,69H113
		h-0.1c-4.6,0.9-8.9,2.7-12.8,5.3c-3.9-2.6-8.3-4.4-13-5.3H87h-0.1c-16.1-3-30.8-11.7-41.2-24.5c-10.6-12.9-16.3-29.3-15.9-46.1
		C30.6,51.8,62.1,21,100,21 M100,1C51.2,1,10.8,40.4,9.8,89.3c-0.9,45,31,82.7,73.5,90.7c4.8,0.9,8.8,4,11,8.4l5.8,11.6l5.8-11.7
		c2.1-4.2,6.1-7.4,10.8-8.3c41.9-7.8,73.6-44.5,73.6-88.7c0-49.6-40-89.8-89.5-90.3C100.6,1,100.3,1,100,1L100,1z"/>
	<path id="Shape_3_" class="st0" d="M134.8,77.8c-2.3,0-4.4,0.4-6.4,1.1c-4.2-8.9-8.3-17.5-8.3-17.5s-2.5-7.8-7.2-7.9l0,0h-0.1
		h-10.3c0,0-0.1,4.3,3.3,4.3h7l0,0c0,0,1.5,0.1,3.7,5h0.1h-0.1l1,2.2l-12.2,27.3c-0.9,1.4-2.5,3.1-5,3h-2.5l-16.7-32h7
		c0,0,0.2-4.3-3.6-4.3H69.6c0,0-0.3,4.3,3.3,4.3h3.4l16.7,32h-7.8c-1.3-9.9-9.7-17.4-19.9-17.4c-11.1,0-20.1,9-20.1,20.1
		s9,20.1,20.1,20.1c10.6,0,19.2-8.1,20.1-18.5h15.2c0,0,6,0.3,8.3-4.5l0.1,0.1l10.9-25l4.8,10.5c-6,3.5-10,9.9-10,17.4
		c0,11.1,9,20.1,20.1,20.1c11.1,0,20.1-9,20.1-20.1C154.9,86.9,145.9,77.8,134.8,77.8z M65.2,113.6c-8.6,0-15.6-7-15.6-15.6
		s7-15.6,15.6-15.6c7.7,0,14.1,5.6,15.4,12.9h-13c-3.9,0-3.8,4.3-3.8,4.3h17C80,107.5,73.3,113.6,65.2,113.6z M134.8,113.6
		c-8.6,0-15.6-7-15.6-15.6c0-5.6,3-10.5,7.4-13.2l6.8,14.7c0,0,3.9-2,1.9-6.3c-1.3-2.6-3-6.2-4.8-10.1c1.5-0.4,2.9-0.7,4.5-0.7
		c8.6,0,15.6,7,15.6,15.6S143.4,113.6,134.8,113.6z"/>
</g>
</svg>
