<?xml version="1.0" encoding="utf-8"?>
<!-- Generator: Adobe Illustrator 22.0.0, SVG Export Plug-In . SVG Version: 6.00 Build 0)  -->
<svg version="1.1" id="图层_1" xmlns="http://www.w3.org/2000/svg" xmlns:xlink="http://www.w3.org/1999/xlink" x="0px" y="0px"
	 viewBox="0 0 200 200" style="enable-background:new 0 0 200 200;" xml:space="preserve">
<style type="text/css">
	.st0{fill:#F05B49;}
	.st1{fill:#FFFFFF;}
	.st2{fill:#FDE104;}
	.st3{fill:#AA810C;}
	.st4{fill:#7BCA02;}
	.st5{fill:#3366FF;}
	.st6{fill:#00A0E9;}
	.st7{fill:#FF7E27;}
	.st8{fill:#F26700;}
	.st9{fill:#FFD9B0;}
	.st10{fill:#FFD0B0;}
</style>
<g>
	<g>
		<path id="path-1_1_" class="st0" d="M190.3,91.3c0-49.6-40-89.8-89.5-90.3c-49.2-0.5-90,39.1-91.1,88.3c-0.9,45,31,82.7,73.5,90.7
			c4.8,0.9,8.8,4,11,8.4L100,200l5.8-11.7c2.1-4.2,6.1-7.4,10.8-8.3C158.6,172.2,190.3,135.5,190.3,91.3z"/>
	</g>
	<path id="Shape_4_" class="st1" d="M134.9,78c-2.3,0-4.4,0.4-6.4,1.1c-4.2-8.9-8.4-17.6-8.4-17.6s-2.5-7.8-7.2-8l0,0h-0.1l0,0l0,0
		h-10.3c0,0-0.1,4.3,3.3,4.3h7l0,0c0,0,1.5,0.1,3.7,5h0.1h-0.1l1,2.2l-12.2,27.3c-0.8,1.3-2.3,2.9-4.6,3.1l0,0h-2.9L81,63.4h7
		c0,0,0.2-4.3-3.6-4.3H69.6c0,0-0.3,4.3,3.3,4.3h3.4l16.7,32h-7.8c-1.3-9.9-9.8-17.4-20-17.4C54,77.9,45,87,45,98.1
		s9,20.2,20.2,20.2c10.6,0,19.2-8.2,20.1-18.5h15.2c0,0,6,0.3,8.4-4.5l0.1,0.1l10.9-25.1l4.8,10.5c-6,3.5-10,9.9-10,17.4
		c0,11.1,9,20.2,20.2,20.2c11.1,0,20.2-9,20.2-20.2C155.1,87,146,78,134.9,78z M65.2,113.8c-8.6,0-15.7-7-15.7-15.7
		s7-15.7,15.7-15.7c7.7,0,14.1,5.6,15.4,12.9H67.6c-3.9,0-3.8,4.3-3.8,4.3h17C80,107.7,73.3,113.8,65.2,113.8z M134.9,113.8
		c-8.6,0-15.7-7-15.7-15.7c0-5.6,3-10.5,7.4-13.3l6.8,14.7c0,0,3.9-2,1.9-6.3c-1.3-2.7-3-6.2-4.8-10.1c1.5-0.4,2.9-0.7,4.5-0.7
		c8.6,0,15.7,7,15.7,15.7S143.5,113.8,134.9,113.8z"/>
</g>
</svg>
