<?xml version="1.0" encoding="utf-8"?>
<!-- Generator: Adobe Illustrator 22.0.0, SVG Export Plug-In . SVG Version: 6.00 Build 0)  -->
<svg version="1.1" id="图层_1" xmlns="http://www.w3.org/2000/svg" xmlns:xlink="http://www.w3.org/1999/xlink" x="0px" y="0px"
	 viewBox="0 0 200 200" style="enable-background:new 0 0 200 200;" xml:space="preserve">
<style type="text/css">
	.st0{fill:#F05B49;}
	.st1{fill:#FFFFFF;}
	.st2{fill:#FDE104;}
	.st3{fill:#AA810C;}
	.st4{fill:#7BCA02;}
	.st5{fill:#3366FF;}
	.st6{fill:#00A0E9;}
	.st7{fill:#FF7E27;}
	.st8{fill:#F26700;}
	.st9{fill:#FFD9B0;}
	.st10{fill:#FFD0B0;}
</style>
<g>
	<g>
		<g>
			<g id="path-1_2_">
				<path class="st1" d="M100,179c-3.8-4.6-8.9-7.7-14.9-8.9c-38.7-7.3-66.2-41.2-65.4-80.7c0.9-43.3,36.9-78.5,80.2-78.5h0.8
					C122,11.1,142,19.5,157,34.7c15,15.1,23.3,35.2,23.3,56.5c0,38.7-27.5,71.8-65.4,78.9h-0.1C109,171.3,103.8,174.4,100,179z"/>
				<path class="st2" d="M100,21c0.2,0,0.4,0,0.7,0c18.7,0.2,36.2,7.6,49.3,20.8s20.4,30.8,20.4,49.5c0,33.8-24.1,62.9-57.3,69H113
					h-0.1c-4.6,0.9-8.9,2.7-12.8,5.3c-3.9-2.6-8.3-4.4-13-5.3H87h-0.1c-16.1-3-30.8-11.7-41.2-24.5c-10.6-12.9-16.3-29.3-15.9-46.1
					C30.6,51.8,62.1,21,100,21 M100,1C51.2,1,10.8,40.4,9.8,89.3c-0.9,45,31,82.7,73.5,90.7c4.8,0.9,8.8,4,11,8.4l5.8,11.6l5.8-11.7
					c2.1-4.2,6.1-7.4,10.8-8.3c41.9-7.8,73.6-44.5,73.6-88.7c0-49.6-40-89.8-89.5-90.3C100.6,1,100.3,1,100,1L100,1z"/>
			</g>
		</g>
	</g>
	<g>
		<path class="st3" d="M110.6,73.1h-11v-4c0-3.2,2.5-5.7,5.7-5.7h5.2c1.3,0,2.3-1,2.3-2.3s-1-2.3-2.3-2.3h-5.2
			c-5.7,0-10.3,4.7-10.3,10.3v40.6c0,1.3,1,2.3,2.3,2.3c1.2,0,2.3-1,2.3-2.3v-32h10.9c1.3,0,2.4-1,2.4-2.3S111.9,73.1,110.6,73.1z"
			/>
		<path class="st3" d="M65.2,73.1c-10.4,0-18.8,8.4-18.8,18.8c0,10.4,8.5,18.8,18.8,18.8c10.4,0,18.8-8.4,18.8-18.8
			C84,81.5,75.6,73.1,65.2,73.1z M65.2,106.1c-7.9,0-14.2-6.4-14.2-14.2s6.3-14.2,14.2-14.2c7.9,0,14.2,6.4,14.2,14.2
			S73.1,106.1,65.2,106.1z"/>
		<path class="st3" d="M134.6,73.1c-10.4,0-18.8,8.4-18.8,18.8c0,10.4,8.5,18.8,18.8,18.8c10.3,0,18.8-8.4,18.8-18.8
			C153.4,81.5,144.9,73.1,134.6,73.1z M134.6,106.1c-7.9,0-14.2-6.4-14.2-14.2s6.3-14.2,14.2-14.2c7.8,0,14.2,6.4,14.2,14.2
			S142.5,106.1,134.6,106.1z"/>
	</g>
</g>
</svg>
